<svg width="192" height="192" viewBox="0 0 192 192" fill="none" xmlns="http://www.w3.org/2000/svg">
<rect width="192" height="192" rx="32" fill="#1E1A4D"/>
<path d="M26.356 108V89.28C26.356 88.4907 26.548 87.7653 26.932 87.104C27.316 86.4427 27.8387 85.92 28.5 85.536C29.1613 85.152 29.8867 84.96 30.676 84.96H45.076C45.8653 84.96 46.58 85.152 47.22 85.536C47.8813 85.92 48.404 86.4427 48.788 87.104C49.1933 87.7653 49.396 88.4907 49.396 89.28V108H45.524V100.096H30.196V108H26.356ZM30.196 96.256H45.524V89.408C45.524 89.2373 45.46 89.0987 45.332 88.992C45.2253 88.8853 45.0973 88.832 44.948 88.832H30.772C30.6227 88.832 30.484 88.8853 30.356 88.992C30.2493 89.0987 30.196 89.2373 30.196 89.408V96.256ZM54.13 115.328V111.488H65.426C65.5753 111.488 65.7033 111.424 65.81 111.296C65.938 111.189 66.002 111.051 66.002 110.88V108H55.25C54.482 108 53.7673 107.808 53.106 107.424C52.466 107.019 51.9433 106.496 51.538 105.856C51.154 105.216 50.962 104.501 50.962 103.712V93.728C50.962 92.9387 51.154 92.224 51.538 91.584C51.9433 90.944 52.466 90.432 53.106 90.048C53.7673 89.6427 54.482 89.44 55.25 89.44H65.554C66.3433 89.44 67.058 89.6427 67.698 90.048C68.3593 90.432 68.8713 90.944 69.234 91.584C69.618 92.224 69.81 92.9387 69.81 93.728V111.04C69.81 111.829 69.618 112.544 69.234 113.184C68.8713 113.845 68.3593 114.368 67.698 114.752C67.058 115.136 66.3433 115.328 65.554 115.328H54.13ZM55.378 104.192H65.426C65.5753 104.192 65.7033 104.139 65.81 104.032C65.938 103.904 66.002 103.755 66.002 103.584V93.856C66.002 93.6853 65.938 93.5467 65.81 93.44C65.7033 93.312 65.5753 93.248 65.426 93.248H55.378C55.2073 93.248 55.058 93.312 54.93 93.44C54.8233 93.5467 54.77 93.6853 54.77 93.856V103.584C54.77 103.755 54.8233 103.904 54.93 104.032C55.058 104.139 55.2073 104.192 55.378 104.192ZM71.6217 108V83.36H75.4297V89.44H86.2138C86.9817 89.44 87.6857 89.6427 88.3258 90.048C88.9871 90.432 89.5098 90.944 89.8937 91.584C90.2777 92.224 90.4697 92.9387 90.4697 93.728V108H86.6618V93.856C86.6618 93.6853 86.5978 93.5467 86.4697 93.44C86.3631 93.312 86.2351 93.248 86.0858 93.248H76.0377C75.8884 93.248 75.7497 93.312 75.6217 93.44C75.4937 93.5467 75.4297 93.6853 75.4297 93.856V108H71.6217ZM91.3327 108V93.728C91.3327 92.9387 91.5247 92.224 91.9087 91.584C92.3141 90.944 92.8367 90.432 93.4767 90.048C94.1381 89.6427 94.8527 89.44 95.6207 89.44H105.957V93.248H95.7487C95.5781 93.248 95.4287 93.312 95.3007 93.44C95.1941 93.5467 95.1407 93.6853 95.1407 93.856V108H91.3327ZM110.958 108C110.169 108 109.444 107.808 108.782 107.424C108.142 107.019 107.63 106.496 107.246 105.856C106.862 105.216 106.67 104.501 106.67 103.712V96.8H121.71V93.856C121.71 93.6853 121.646 93.5467 121.518 93.44C121.412 93.312 121.273 93.248 121.102 93.248H106.67V89.44H121.23C122.041 89.44 122.766 89.6427 123.406 90.048C124.046 90.432 124.558 90.944 124.942 91.584C125.326 92.224 125.518 92.9387 125.518 93.728V108H110.958ZM111.086 104.192H121.71V100.288H110.478V103.584C110.478 103.755 110.532 103.904 110.638 104.032C110.766 104.139 110.916 104.192 111.086 104.192ZM126.478 108V83.36H130.286V89.44H141.07C141.838 89.44 142.542 89.6427 143.182 90.048C143.843 90.432 144.366 90.944 144.75 91.584C145.134 92.224 145.326 92.9387 145.326 93.728V103.712C145.326 104.501 145.134 105.216 144.75 105.856C144.366 106.496 143.843 107.019 143.182 107.424C142.542 107.808 141.838 108 141.07 108H126.478ZM130.894 104.192H140.942C141.091 104.192 141.219 104.139 141.326 104.032C141.454 103.904 141.518 103.755 141.518 103.584V93.856C141.518 93.6853 141.454 93.5467 141.326 93.44C141.219 93.312 141.091 93.248 140.942 93.248H130.894C130.745 93.248 130.606 93.312 130.478 93.44C130.35 93.5467 130.286 93.6853 130.286 93.856V103.584C130.286 103.755 130.35 103.904 130.478 104.032C130.606 104.139 130.745 104.192 130.894 104.192ZM150.414 108C149.624 108 148.91 107.808 148.27 107.424C147.63 107.019 147.107 106.496 146.702 105.856C146.318 105.216 146.126 104.501 146.126 103.712V93.728C146.126 92.9387 146.318 92.224 146.702 91.584C147.107 90.944 147.63 90.432 148.27 90.048C148.91 89.6427 149.624 89.44 150.414 89.44H160.686C161.496 89.44 162.222 89.6427 162.862 90.048C163.502 90.432 164.014 90.944 164.398 91.584C164.782 92.224 164.974 92.9387 164.974 93.728V100.64H149.934V103.584C149.934 103.755 149.987 103.904 150.094 104.032C150.222 104.139 150.371 104.192 150.542 104.192H164.974V108H150.414ZM149.934 97.152H161.166V93.856C161.166 93.6853 161.102 93.5467 160.974 93.44C160.867 93.312 160.728 93.248 160.558 93.248H150.542C150.371 93.248 150.222 93.312 150.094 93.44C149.987 93.5467 149.934 93.6853 149.934 93.856V97.152Z" fill="#EEF2FF"/>
<path d="M91.6328 84.2419L128.263 54.8557L93.9237 87.0975L87.3234 87.6991L91.6328 84.2419Z" fill="#EEF2FF"/>
<path d="M91.6328 84.2419L128.263 54.8557L89.342 81.3862L87.3234 87.6991L91.6328 84.2419Z" fill="#A3B3FF"/>
<path d="M92.2855 84.982L69.9298 65.1458L89.8557 87.7204L94.9156 87.3157L92.2855 84.982Z" fill="#EEF2FF"/>
<path d="M92.2855 84.982L69.9298 65.1458L94.7153 82.2436L94.9156 87.3157L92.2855 84.982Z" fill="#A3B3FF"/>
<circle cx="91.4394" cy="84.1906" r="0.915245" fill="#201F30"/>
</svg>
