<svg width="192" height="192" viewBox="0 0 192 192" fill="none" xmlns="http://www.w3.org/2000/svg">
<rect width="192" height="192" rx="32" fill="#1E1A4D"/>
<path d="M41 47.875C41 46.0516 41.7243 44.303 43.0136 43.0136C44.303 41.7243 46.0516 41 47.875 41H144.125C145.948 41 147.697 41.7243 148.986 43.0136C150.276 44.303 151 46.0516 151 47.875V144.125C151 145.948 150.276 147.697 148.986 148.986C147.697 150.276 145.948 151 144.125 151H47.875C46.0516 151 44.303 150.276 43.0136 148.986C41.7243 147.697 41 145.948 41 144.125V47.875Z" stroke="#EEF2FF" stroke-width="8" stroke-linecap="round" stroke-linejoin="round"/>
<path d="M96 62V95.75L117 116" stroke="#EEF2FF" stroke-width="8" stroke-linecap="round" stroke-linejoin="round"/>
<path d="M41 96H48" stroke="#EEF2FF" stroke-width="8" stroke-linecap="round" stroke-linejoin="round"/>
<path d="M144 96H151" stroke="#EEF2FF" stroke-width="8" stroke-linecap="round" stroke-linejoin="round"/>
<path d="M96 144V151" stroke="#EEF2FF" stroke-width="8" stroke-linecap="round" stroke-linejoin="round"/>
</svg>
