<svg width="192" height="192" viewBox="0 0 192 192" fill="none" xmlns="http://www.w3.org/2000/svg">
<rect width="192" height="192" rx="32" fill="url(#paint0_linear_34_13)"/>
<path d="M25.856 108V89.28C25.856 88.4907 26.048 87.7653 26.432 87.104C26.816 86.4427 27.3387 85.92 28 85.536C28.6613 85.152 29.3867 84.96 30.176 84.96H44.576C45.3653 84.96 46.08 85.152 46.72 85.536C47.3813 85.92 47.904 86.4427 48.288 87.104C48.6933 87.7653 48.896 88.4907 48.896 89.28V108H45.024V100.096H29.696V108H25.856ZM29.696 96.256H45.024V89.408C45.024 89.2373 44.96 89.0987 44.832 88.992C44.7253 88.8853 44.5973 88.832 44.448 88.832H30.272C30.1227 88.832 29.984 88.8853 29.856 88.992C29.7493 89.0987 29.696 89.2373 29.696 89.408V96.256ZM53.63 115.328V111.488H64.926C65.0753 111.488 65.2033 111.424 65.31 111.296C65.438 111.189 65.502 111.051 65.502 110.88V108H54.75C53.982 108 53.2673 107.808 52.606 107.424C51.966 107.019 51.4433 106.496 51.038 105.856C50.654 105.216 50.462 104.501 50.462 103.712V93.728C50.462 92.9387 50.654 92.224 51.038 91.584C51.4433 90.944 51.966 90.432 52.606 90.048C53.2673 89.6427 53.982 89.44 54.75 89.44H65.054C65.8433 89.44 66.558 89.6427 67.198 90.048C67.8593 90.432 68.3713 90.944 68.734 91.584C69.118 92.224 69.31 92.9387 69.31 93.728V111.04C69.31 111.829 69.118 112.544 68.734 113.184C68.3713 113.845 67.8593 114.368 67.198 114.752C66.558 115.136 65.8433 115.328 65.054 115.328H53.63ZM54.878 104.192H64.926C65.0753 104.192 65.2033 104.139 65.31 104.032C65.438 103.904 65.502 103.755 65.502 103.584V93.856C65.502 93.6853 65.438 93.5467 65.31 93.44C65.2033 93.312 65.0753 93.248 64.926 93.248H54.878C54.7073 93.248 54.558 93.312 54.43 93.44C54.3233 93.5467 54.27 93.6853 54.27 93.856V103.584C54.27 103.755 54.3233 103.904 54.43 104.032C54.558 104.139 54.7073 104.192 54.878 104.192ZM71.1217 108V83.36H74.9297V89.44H85.7138C86.4817 89.44 87.1857 89.6427 87.8258 90.048C88.4871 90.432 89.0098 90.944 89.3937 91.584C89.7777 92.224 89.9697 92.9387 89.9697 93.728V108H86.1618V93.856C86.1618 93.6853 86.0978 93.5467 85.9697 93.44C85.8631 93.312 85.7351 93.248 85.5858 93.248H75.5377C75.3884 93.248 75.2497 93.312 75.1217 93.44C74.9937 93.5467 74.9297 93.6853 74.9297 93.856V108H71.1217ZM90.8327 108V93.728C90.8327 92.9387 91.0247 92.224 91.4087 91.584C91.8141 90.944 92.3367 90.432 92.9767 90.048C93.6381 89.6427 94.3527 89.44 95.1207 89.44H105.457V93.248H95.2487C95.0781 93.248 94.9287 93.312 94.8007 93.44C94.6941 93.5467 94.6407 93.6853 94.6407 93.856V108H90.8327ZM110.458 108C109.669 108 108.944 107.808 108.282 107.424C107.642 107.019 107.13 106.496 106.746 105.856C106.362 105.216 106.17 104.501 106.17 103.712V96.8H121.21V93.856C121.21 93.6853 121.146 93.5467 121.018 93.44C120.912 93.312 120.773 93.248 120.602 93.248H106.17V89.44H120.73C121.541 89.44 122.266 89.6427 122.906 90.048C123.546 90.432 124.058 90.944 124.442 91.584C124.826 92.224 125.018 92.9387 125.018 93.728V108H110.458ZM110.586 104.192H121.21V100.288H109.978V103.584C109.978 103.755 110.032 103.904 110.138 104.032C110.266 104.139 110.416 104.192 110.586 104.192ZM125.978 108V83.36H129.786V89.44H140.57C141.338 89.44 142.042 89.6427 142.682 90.048C143.343 90.432 143.866 90.944 144.25 91.584C144.634 92.224 144.826 92.9387 144.826 93.728V103.712C144.826 104.501 144.634 105.216 144.25 105.856C143.866 106.496 143.343 107.019 142.682 107.424C142.042 107.808 141.338 108 140.57 108H125.978ZM130.394 104.192H140.442C140.591 104.192 140.719 104.139 140.826 104.032C140.954 103.904 141.018 103.755 141.018 103.584V93.856C141.018 93.6853 140.954 93.5467 140.826 93.44C140.719 93.312 140.591 93.248 140.442 93.248H130.394C130.245 93.248 130.106 93.312 129.978 93.44C129.85 93.5467 129.786 93.6853 129.786 93.856V103.584C129.786 103.755 129.85 103.904 129.978 104.032C130.106 104.139 130.245 104.192 130.394 104.192ZM149.914 108C149.124 108 148.41 107.808 147.77 107.424C147.13 107.019 146.607 106.496 146.202 105.856C145.818 105.216 145.626 104.501 145.626 103.712V93.728C145.626 92.9387 145.818 92.224 146.202 91.584C146.607 90.944 147.13 90.432 147.77 90.048C148.41 89.6427 149.124 89.44 149.914 89.44H160.186C160.996 89.44 161.722 89.6427 162.362 90.048C163.002 90.432 163.514 90.944 163.898 91.584C164.282 92.224 164.474 92.9387 164.474 93.728V100.64H149.434V103.584C149.434 103.755 149.487 103.904 149.594 104.032C149.722 104.139 149.871 104.192 150.042 104.192H164.474V108H149.914ZM149.434 97.152H160.666V93.856C160.666 93.6853 160.602 93.5467 160.474 93.44C160.367 93.312 160.228 93.248 160.058 93.248H150.042C149.871 93.248 149.722 93.312 149.594 93.44C149.487 93.5467 149.434 93.6853 149.434 93.856V97.152Z" fill="#EEF2FF"/>
<path d="M91.1328 84.2419L127.763 54.8557L93.4237 87.0975L86.8234 87.6991L91.1328 84.2419Z" fill="#EEF2FF"/>
<path d="M91.1328 84.2419L127.763 54.8557L88.842 81.3862L86.8234 87.6991L91.1328 84.2419Z" fill="#A3B3FF"/>
<path d="M91.7855 84.982L69.4298 65.1458L89.3557 87.7204L94.4156 87.3157L91.7855 84.982Z" fill="#EEF2FF"/>
<path d="M91.7855 84.982L69.4298 65.1458L94.2153 82.2436L94.4156 87.3157L91.7855 84.982Z" fill="#A3B3FF"/>
<circle cx="90.9394" cy="84.1908" r="0.915245" fill="#201F30"/>
<defs>
<linearGradient id="paint0_linear_34_13" x1="96" y1="-28.5257" x2="-37.3029" y2="245.486" gradientUnits="userSpaceOnUse">
<stop stop-color="#7C86FF" stop-opacity="0.38"/>
<stop offset="0.352938" stop-color="#1E1A4D" stop-opacity="0.3"/>
<stop offset="1" stop-color="#432DD7"/>
</linearGradient>
</defs>
</svg>
